<?xml version="1.0" encoding="utf-8"?>
<!-- Generator: Adobe Illustrator 24.0.0, SVG Export Plug-In . SVG Version: 6.00 Build 0)  -->
<svg version="1.1" id="Layer_1" xmlns="http://www.w3.org/2000/svg" xmlns:xlink="http://www.w3.org/1999/xlink" x="0px" y="0px"
	 viewBox="0 0 454 80" enable-background="new 0 0 454 80" xml:space="preserve">
<g>
	<g>
		<g>
			<g>
				<g>
					<path fill="#191919" d="M160.82,33.73c-0.06,0.98-0.25,2.15-0.58,3.51c-0.33,1.36-0.79,2.52-1.38,3.47
						c-0.59,0.95-1.44,1.96-2.53,3.02c-1.1,1.07-2.43,1.91-4,2.53c-1.57,0.62-3.53,1.14-5.87,1.56c-2.34,0.41-4.99,0.62-7.96,0.62
						h-14.13v20h-6.93V11.56h20.27c4.09,0,7.63,0.41,10.62,1.24c2.99,0.83,5.27,1.84,6.84,3.02c1.57,1.19,2.81,2.68,3.73,4.49
						c0.92,1.81,1.48,3.44,1.69,4.89c0.21,1.45,0.31,3.13,0.31,5.02C160.91,31.59,160.88,32.76,160.82,33.73z M153.58,25.73
						c-0.33-1.27-0.99-2.62-2-4.04c-1.01-1.42-2.65-2.52-4.93-3.29c-2.28-0.77-5.14-1.16-8.58-1.16h-13.69v25.51h13.96
						c3.44,0,6.28-0.36,8.53-1.07c2.25-0.71,3.87-1.75,4.84-3.11c0.98-1.36,1.61-2.65,1.91-3.87c0.3-1.21,0.44-2.71,0.44-4.49
						C154.07,28.5,153.9,27.01,153.58,25.73z"/>
					<path fill="#191919" d="M220.46,51.24c-0.8,3.23-2.16,6.24-4.09,9.02c-1.93,2.79-4.73,4.93-8.4,6.44
						c-3.67,1.51-8.12,2.27-13.33,2.27c-5.21,0-9.64-0.76-13.29-2.27c-3.64-1.51-6.43-3.66-8.36-6.44
						c-1.93-2.79-3.29-5.81-4.09-9.07c-0.8-3.26-1.2-6.99-1.2-11.2s0.41-7.94,1.24-11.2c0.83-3.26,2.21-6.28,4.13-9.07
						c1.93-2.79,4.71-4.93,8.36-6.44c3.64-1.51,8.04-2.27,13.2-2.27c5.21,0,9.66,0.76,13.33,2.27c3.67,1.51,6.47,3.66,8.4,6.44
						c1.93,2.79,3.29,5.82,4.09,9.11c0.8,3.29,1.2,7.04,1.2,11.24S221.26,48.01,220.46,51.24z M213.75,30.89
						c-0.59-2.64-1.6-5.07-3.02-7.29c-1.42-2.22-3.48-3.91-6.18-5.07s-6-1.73-9.91-1.73c-7.41,0-12.58,2.06-15.51,6.18
						c-2.93,4.12-4.4,9.79-4.4,17.02s1.47,12.9,4.4,17.02c2.93,4.12,8.1,6.18,15.51,6.18c3.91,0,7.21-0.58,9.91-1.73
						s4.76-2.84,6.18-5.07c1.42-2.22,2.43-4.64,3.02-7.24s0.89-5.63,0.89-9.07C214.64,36.59,214.34,33.53,213.75,30.89z"/>
					<path fill="#191919" d="M230.96,68.44V11.56h6.93v51.2h23.91v5.69H230.96z"/>
					<path fill="#191919" d="M316.27,68.44l-4.8-12.09h-31.2l-4.89,12.09H268l23.38-56.89h9.16l22.93,56.89H316.27z M295.91,16.8
						l-13.69,34.22h27.29L295.91,16.8z"/>
					<path fill="#191919" d="M348.57,45.24l28.09,23.2h-10.22l-27.11-24v24h-6.93V11.56h19.82c4.03,0,7.53,0.37,10.49,1.11
						c2.96,0.74,5.23,1.66,6.8,2.76c1.57,1.1,2.83,2.47,3.78,4.13c0.95,1.66,1.54,3.18,1.78,4.58c0.24,1.39,0.36,2.95,0.36,4.67
						c0,2.84-0.44,5.29-1.33,7.33c-0.89,2.04-2.01,3.64-3.38,4.8c-1.36,1.16-3.1,2.07-5.2,2.76c-2.1,0.68-4.12,1.11-6.04,1.29
						c-1.93,0.18-4.13,0.27-6.62,0.27H348.57z M367.86,24.71c-0.36-1.19-1.04-2.39-2.04-3.6c-1.01-1.21-2.64-2.16-4.89-2.84
						c-2.25-0.68-5.1-1.02-8.53-1.02h-13.07V40h13.51c3.38,0,6.18-0.31,8.4-0.93c2.22-0.62,3.81-1.54,4.76-2.76
						c0.95-1.21,1.59-2.37,1.91-3.47s0.49-2.44,0.49-4.04C368.39,27.26,368.21,25.9,367.86,24.71z"/>
					<path fill="#191919" d="M387.99,68.44V11.56h6.93v56.89H387.99z"/>
					<path fill="#191919" d="M448.53,64c-3.64,3.32-9.61,4.98-17.91,4.98c-9.01,0-15.5-1.66-19.47-4.98
						c-3.97-3.32-5.96-8.18-5.96-14.58h6.84c0.12,4.39,1.59,7.72,4.4,10c2.81,2.28,7.48,3.42,14,3.42
						c11.02,0,16.59-3.38,16.71-10.13c0.06-2.43-0.89-4.38-2.84-5.87c-1.96-1.48-4.43-2.5-7.42-3.07c-2.99-0.56-6.22-1.2-9.69-1.91
						c-3.47-0.71-6.7-1.45-9.69-2.22s-5.48-2.15-7.47-4.13c-1.99-1.99-2.98-4.52-2.98-7.6c0-5.39,1.91-9.56,5.73-12.49
						c3.82-2.93,9.44-4.4,16.84-4.4c15.64,0,23.5,6.19,23.56,18.58h-6.76c-0.24-4.68-1.76-7.97-4.58-9.87
						c-2.81-1.9-6.98-2.84-12.49-2.84c-4.98,0-8.81,0.9-11.51,2.71c-2.7,1.81-4.04,4.4-4.04,7.78c0,2.55,1.38,4.52,4.13,5.91
						c2.76,1.39,6.1,2.41,10.04,3.07c3.94,0.65,7.88,1.41,11.82,2.27c3.94,0.86,7.29,2.39,10.04,4.58c2.76,2.19,4.13,5.16,4.13,8.89
						C454,56.71,452.18,60.68,448.53,64z"/>
				</g>
			</g>
		</g>
		<g>
			<linearGradient id="SVGID_1_" gradientUnits="userSpaceOnUse" x1="0" y1="30.3345" x2="52.7277" y2="30.3345">
				<stop  offset="0" style="stop-color:#202A5F"/>
				<stop  offset="0.1126" style="stop-color:#243162"/>
				<stop  offset="0.2714" style="stop-color:#2E436A"/>
				<stop  offset="0.4577" style="stop-color:#3F6177"/>
				<stop  offset="0.6648" style="stop-color:#578B89"/>
				<stop  offset="0.8865" style="stop-color:#76C1A0"/>
				<stop  offset="1" style="stop-color:#87DFAD"/>
			</linearGradient>
			<path fill="url(#SVGID_1_)" d="M27.64,44.08l16.34-6.7c4.3-1.77,8.75-3.6,8.75-11.06v-9.72l-25.09,10.3L9.29,19.35v5.31
				l18.35,7.53l20.18-8.28v2.4c0,3.99-1.28,4.7-5.71,6.52l-14.47,5.94L0,27.42v5.31L27.64,44.08z"/>
			<linearGradient id="SVGID_2_" gradientUnits="userSpaceOnUse" x1="3.2374" y1="60.1874" x2="44.3076" y2="60.1874">
				<stop  offset="0" style="stop-color:#202A5F"/>
				<stop  offset="0.1126" style="stop-color:#243162"/>
				<stop  offset="0.2714" style="stop-color:#2E436A"/>
				<stop  offset="0.4577" style="stop-color:#3F6177"/>
				<stop  offset="0.6648" style="stop-color:#578B89"/>
				<stop  offset="0.8865" style="stop-color:#76C1A0"/>
				<stop  offset="1" style="stop-color:#87DFAD"/>
			</linearGradient>
			<polygon fill="url(#SVGID_2_)" points="44.31,61 44.31,55.7 27.64,62.54 3.24,52.52 3.24,57.83 27.64,67.85 			"/>
			<linearGradient id="SVGID_3_" gradientUnits="userSpaceOnUse" x1="3.2374" y1="72.0731" x2="44.3076" y2="72.0731">
				<stop  offset="0" style="stop-color:#202A5F"/>
				<stop  offset="0.1126" style="stop-color:#243162"/>
				<stop  offset="0.2714" style="stop-color:#2E436A"/>
				<stop  offset="0.4577" style="stop-color:#3F6177"/>
				<stop  offset="0.6648" style="stop-color:#578B89"/>
				<stop  offset="0.8865" style="stop-color:#76C1A0"/>
				<stop  offset="1" style="stop-color:#87DFAD"/>
			</linearGradient>
			<polygon fill="url(#SVGID_3_)" points="3.24,64.41 3.24,69.72 27.64,79.74 44.31,72.89 44.31,67.58 27.64,74.43 			"/>
			<linearGradient id="SVGID_4_" gradientUnits="userSpaceOnUse" x1="0" y1="28.1142" x2="63.4901" y2="28.1142">
				<stop  offset="0" style="stop-color:#202A5F"/>
				<stop  offset="0.1126" style="stop-color:#243162"/>
				<stop  offset="0.2714" style="stop-color:#2E436A"/>
				<stop  offset="0.4577" style="stop-color:#3F6177"/>
				<stop  offset="0.6648" style="stop-color:#578B89"/>
				<stop  offset="0.8865" style="stop-color:#76C1A0"/>
				<stop  offset="1" style="stop-color:#87DFAD"/>
			</linearGradient>
			<path fill="url(#SVGID_4_)" d="M63.49,0.26l-2.94,1.22L27.64,15L0,3.65v5.31l27.64,11.35L58.58,7.6c0,5.19,0,14.07,0,14.16
				c0,10.18-2.61,14.2-4.57,16.34c-2.87,3.13-7.14,4.8-12.08,6.73c-1.14,0.45-2.32,0.91-3.54,1.4l-10.76,4.42L12.39,44.4v5.31
				l15.25,6.26l12.63-5.19c1.17-0.48,2.33-0.93,3.46-1.37c10.61-4.14,19.77-7.72,19.77-27.64l0-8.96l0-8.32L63.49,0.26z"/>
		</g>
	</g>
</g>
</svg>
