<svg width="381" height="112" viewBox="0 0 381 112" fill="none" xmlns="http://www.w3.org/2000/svg">
<g filter="url(#filter0_d)">
<path d="M195.981 25.3975V52.275H190.531V35.6494L185.197 44.2117H180.876L175.542 35.6494V52.275H170.092V25.3975H175.542L183.017 37.4156L190.531 25.3975H195.981Z" fill="white"/>
<path d="M219.378 46.9362V52.3115H198.94V25.434H219.378V30.8096H204.39V36.1849H216.653V41.5606H204.39V46.9362H219.378Z" fill="white"/>
<path d="M243.398 32.2688C243.398 33.4722 243.411 34.624 243.437 35.7243C243.46 36.8923 243.408 38.0607 243.281 39.2185C243.221 39.8268 243.041 40.4072 242.755 40.9081C242.417 41.4344 241.984 41.8552 241.49 42.1366C240.965 42.5039 240.379 42.7205 239.777 42.7702C239.206 42.8085 238.609 42.8277 237.986 42.8279L243.281 52.2349H237.052L231.758 42.8279H227.514V52.2349H222.064V25.3575H238.999C239.587 25.3511 240.171 25.4613 240.731 25.6839C241.234 25.8823 241.703 26.1949 242.113 26.6057C242.493 26.9886 242.81 27.4577 243.048 27.9878C243.281 28.5108 243.401 29.0991 243.398 29.6964V32.2688ZM237.831 37.4522V30.7328H227.514V37.4522H237.831Z" fill="white"/>
<path d="M263.641 25.3957C264.528 25.3824 265.397 25.7038 266.132 26.3171C266.663 26.8309 267.062 27.5246 267.281 28.3138C267.504 29.1299 267.616 29.9863 267.612 30.8479V33.3437H262.162V30.656H251.261V46.7826H262.162V44.0946H267.612C267.612 44.8629 267.605 45.7204 267.593 46.6674C267.586 47.5736 267.447 48.4709 267.184 49.3166C266.923 50.1377 266.485 50.8548 265.918 51.3899C265.141 52.0211 264.218 52.318 263.29 52.2347H252.74C252.273 52.2347 251.638 52.2155 250.833 52.1771C250.042 52.1416 249.258 51.9869 248.497 51.7164C247.774 51.4677 247.104 51.0288 246.531 50.4299C246.244 50.1066 246.02 49.7074 245.875 49.262C245.73 48.8166 245.668 48.3365 245.694 47.8575V33.7278C245.694 32.9087 245.72 32.1727 245.772 31.5198C245.823 30.867 245.901 30.1311 246.005 29.3122C246.09 28.3248 246.472 27.4131 247.076 26.7588C247.659 26.1939 248.338 25.8001 249.061 25.6068C249.866 25.3844 250.69 25.2813 251.514 25.2997C252.383 25.3129 253.207 25.3192 253.986 25.3186C254.79 25.3186 255.472 25.325 256.03 25.3379C256.588 25.3511 257.185 25.3575 257.821 25.3572C258.457 25.3569 259.216 25.3632 260.098 25.3761C260.98 25.3894 262.161 25.3959 263.641 25.3957Z" fill="white"/>
<path d="M270.492 45.4002V25.434H275.943V46.9362H286.843V25.434H292.294V45.4002C292.294 45.5029 292.287 45.7398 292.274 46.1108C292.261 46.4817 292.248 46.8851 292.235 47.32C292.222 47.7549 292.209 48.1587 292.196 48.5296C292.195 48.7681 292.175 49.0059 292.138 49.2398C291.974 49.9459 291.658 50.5833 291.223 51.083C290.703 51.5894 290.097 51.9438 289.451 52.1196C288.957 52.231 288.455 52.2824 287.953 52.2732C287.16 52.2984 286.31 52.3111 285.403 52.3115H277.422C276.539 52.3115 275.715 52.2988 274.95 52.2732C274.46 52.2816 273.971 52.2302 273.49 52.1196C272.839 51.9456 272.219 51.6269 271.66 51.1789C271.205 50.7361 270.877 50.1235 270.726 49.432C270.545 48.7774 270.46 48.0884 270.473 47.3969C270.486 46.7057 270.492 46.0401 270.492 45.4002Z" fill="white"/>
<path d="M316.664 32.2688C316.664 33.4722 316.677 34.624 316.702 35.7243C316.726 36.8923 316.673 38.0607 316.547 39.2185C316.487 39.8268 316.307 40.4072 316.021 40.9081C315.683 41.4344 315.25 41.8552 314.756 42.1366C314.231 42.5039 313.645 42.7205 313.043 42.7702C312.472 42.8085 311.875 42.8277 311.252 42.8279L316.547 52.2349H310.318L305.023 42.8279H300.78V52.2349H295.33V25.3575H312.265C312.852 25.3511 313.437 25.4613 313.997 25.6839C314.5 25.8823 314.969 26.1949 315.379 26.6057C315.759 26.9886 316.076 27.4577 316.314 27.9878C316.547 28.5108 316.667 29.0992 316.664 29.6964L316.664 32.2688ZM311.097 37.4522V30.7328H300.78V37.4522H311.097Z" fill="white"/>
<path d="M324.8 25.434V52.3115H319.349V25.434H324.8Z" fill="white"/>
<path d="M342.63 25.3574L352.557 52.2349H346.757L344.771 46.8593H334.688L332.702 52.2349H326.902L336.829 25.3574H342.63ZM342.785 41.4839L339.749 33.2287L336.674 41.4839H342.785Z" fill="white"/>
<path d="M372.333 46.8977V52.2733H354.581V25.3958H360.031V46.8977H372.333Z" fill="white"/>
<path d="M191.932 68.4618V73.8373H175.621V79.213H187.845V84.5885H175.621V95.3393H170.17V68.4618H191.932Z" fill="white"/>
<path d="M199.835 68.5383V95.4159H194.384V68.5383H199.835Z" fill="white"/>
<path d="M224.789 68.5769V95.4544H219.338L208.438 78.5983V95.4544H202.988V68.5769H208.438L219.338 85.3561V68.5769H224.789Z" fill="white"/>
<path d="M242.696 68.4618L252.623 95.3393H246.823L244.837 89.9636H234.754L232.769 95.3393H226.968L236.895 68.4618H242.696ZM242.852 84.5883L239.815 76.3331L236.74 84.5883H242.852Z" fill="white"/>
<path d="M276.371 68.5769V95.4544H270.92L260.02 78.5983V95.4544H254.57V68.5769H260.02L270.92 85.3561V68.5769H276.371Z" fill="white"/>
<path d="M297.12 68.5C298.007 68.4868 298.876 68.8082 299.612 69.4215C300.143 69.9353 300.542 70.629 300.76 71.4182C300.984 72.2343 301.095 73.0907 301.091 73.9523V76.4481H295.641V73.7604H284.74V89.887H295.641V87.199H301.091C301.091 87.9672 301.085 88.8248 301.072 89.7717C301.065 90.6779 300.927 91.5752 300.663 92.4209C300.402 93.2421 299.965 93.9591 299.398 94.4943C298.621 95.1255 297.697 95.4224 296.77 95.3391H286.22C285.753 95.3391 285.117 95.3199 284.312 95.2814C283.521 95.2459 282.737 95.0912 281.976 94.8208C281.254 94.572 280.583 94.1332 280.01 93.5342C279.723 93.2109 279.499 92.8117 279.354 92.3663C279.209 91.921 279.147 91.4409 279.173 90.9619V76.8322C279.173 76.0131 279.199 75.2771 279.251 74.6242C279.303 73.9713 279.381 73.2354 279.485 72.4166C279.569 71.4292 279.952 70.5174 280.555 69.8632C281.138 69.2983 281.817 68.9044 282.541 68.7112C283.346 68.4888 284.169 68.3857 284.994 68.4041C285.863 68.4173 286.687 68.4236 287.465 68.4229C288.27 68.4229 288.951 68.4294 289.509 68.4423C290.067 68.4554 290.664 68.4619 291.3 68.4616C291.936 68.4613 292.695 68.4676 293.578 68.4804C294.46 68.4938 295.641 68.5003 297.12 68.5Z" fill="white"/>
<path d="M324.06 90.0405V95.4159H303.621V68.5383H324.06V73.9139H309.072V79.2893H321.334V84.6649H309.072V90.0405H324.06Z" fill="white"/>
<path d="M67.3525 51.2302L18.0004 21.6723C15.6799 20.2816 13.6218 18.3024 11.9598 15.8635C10.2979 13.4245 9.06927 10.5802 8.35382 7.51539L8 6L8.03552 6.02612L57.2295 35.0597C59.8207 36.589 62.0862 38.8483 63.8442 41.6565C65.6022 44.4647 66.8038 47.7435 67.3525 51.23L67.3525 51.2302Z" fill="white"/>
<path d="M58.9576 100.821L32.5769 85.4255C30.4216 84.168 28.5062 82.3596 26.9571 80.1194C25.408 77.8792 24.2604 75.2581 23.5899 72.4291C23.4185 71.706 23.2448 70.9732 23.069 70.2308L23.2523 70.3354V70.3441L60.4017 92.0198C61.0362 92.3899 61.7412 92.5351 62.4384 92.4391C63.1355 92.3431 63.7975 92.0097 64.3507 91.476C64.9038 90.9423 65.3264 90.2292 65.5715 89.416C65.8166 88.6028 65.8745 87.7215 65.7389 86.87C65.2357 83.7118 64.1428 80.7429 62.5473 78.2001C60.9519 75.6574 58.8981 73.6114 56.5498 72.2253L25.046 53.6287C22.9259 52.3762 21.0403 50.5901 19.51 48.3845C17.9797 46.1789 16.8383 43.6025 16.1589 40.8199C15.9383 39.9175 15.7352 39.077 15.5697 38.377L15.7106 38.4554L58.0275 63.4371C61.8507 65.6941 65.1946 69.0253 67.7925 73.165C70.3903 77.3046 72.1703 82.1382 72.9902 87.28C73.3472 89.5188 73.1952 91.8364 72.5509 93.9747C71.9067 96.113 70.7956 97.9882 69.3412 99.3917C67.8867 100.795 66.1461 101.672 64.3129 101.924C62.4797 102.177 60.6259 101.795 58.9576 100.821Z" fill="white"/>
<path d="M79.0236 51.2302L128.376 21.6723C130.696 20.2816 132.754 18.3024 134.416 15.8634C136.078 13.4245 137.307 10.5802 138.022 7.51539C138.144 6.994 138.262 6.48887 138.376 6L138.341 6.02612L89.1466 35.0597C86.5553 36.589 84.2898 38.8483 82.5319 41.6565C80.7739 44.4647 79.5723 47.7435 79.0236 51.23V51.2302Z" fill="white"/>
<path d="M87.4179 100.821L113.799 85.4255C115.954 84.168 117.869 82.3596 119.418 80.1194C120.968 77.8792 122.115 75.2581 122.786 72.4291C122.957 71.706 123.131 70.9732 123.307 70.2308L123.123 70.3354V70.3441L85.9739 92.0197C85.3394 92.39 84.6343 92.5351 83.9371 92.4391C83.2399 92.3432 82.5779 92.0097 82.0248 91.476C81.4716 90.9423 81.049 90.2291 80.8039 89.4159C80.5589 88.6027 80.5009 87.7214 80.6366 86.8699C81.1398 83.7117 82.2327 80.7428 83.8281 78.2001C85.4235 75.6573 87.4773 73.6113 89.8255 72.2251L121.329 53.6286C123.45 52.3761 125.335 50.59 126.865 48.3844C128.396 46.1788 129.537 43.6024 130.217 40.8199C130.437 39.9175 130.64 39.077 130.806 38.377L130.665 38.4554L88.3479 63.4371C84.5247 65.6941 81.1808 69.0253 78.583 73.165C75.9851 77.3047 74.2052 82.1382 73.3852 87.28C73.0282 89.5188 73.1802 91.8364 73.8244 93.9747C74.4687 96.113 75.5798 97.9883 77.0343 99.3918C78.4887 100.795 80.2293 101.672 82.0626 101.924C83.8958 102.177 85.7496 101.795 87.4179 100.821Z" fill="white"/>
</g>
<defs>
<filter id="filter0_d" x="0" y="0" width="380.333" height="112" filterUnits="userSpaceOnUse" color-interpolation-filters="sRGB">
<feFlood flood-opacity="0" result="BackgroundImageFix"/>
<feColorMatrix in="SourceAlpha" type="matrix" values="0 0 0 0 0 0 0 0 0 0 0 0 0 0 0 0 0 0 127 0"/>
<feOffset dy="2"/>
<feGaussianBlur stdDeviation="4"/>
<feColorMatrix type="matrix" values="0 0 0 0 0 0 0 0 0 0 0 0 0 0 0 0 0 0 0.05 0"/>
<feBlend mode="normal" in2="BackgroundImageFix" result="effect1_dropShadow"/>
<feBlend mode="normal" in="SourceGraphic" in2="effect1_dropShadow" result="shape"/>
</filter>
</defs>
</svg>
