<svg width="81" height="32" viewBox="0 0 81 32" fill="none" xmlns="http://www.w3.org/2000/svg">
<path d="M43.2091 17.9022L40.1746 13.0977H42.5207L44.4734 16.385H44.5858L46.5244 13.0977H48.8846L45.8361 17.9022L49.1374 23.1562H46.7773L44.5858 19.5318H44.4734L42.2819 23.1562H39.9218L43.2091 17.9022Z" fill="#1D1E2F"/>
<path d="M50.8172 15.9916H52.5451V16.8626H52.6575C52.8542 16.5535 53.1398 16.296 53.5145 16.0899C53.8891 15.8745 54.3199 15.7668 54.8069 15.7668C55.4531 15.7668 56.0385 15.9307 56.5629 16.2585C57.0968 16.5769 57.5135 17.0265 57.8132 17.6072C58.1129 18.1878 58.2628 18.8434 58.2628 19.5739C58.2628 20.3138 58.1129 20.9741 57.8132 21.5547C57.5135 22.126 57.0968 22.5756 56.5629 22.9034C56.0385 23.2218 55.4531 23.381 54.8069 23.381C54.3199 23.381 53.8844 23.278 53.5004 23.0719C53.1258 22.8659 52.8448 22.6083 52.6575 22.2993H52.5451L52.6575 23.3108V26.1907H50.8172V15.9916ZM54.4838 21.6812C54.8303 21.6812 55.1534 21.5922 55.4531 21.4142C55.7528 21.2363 55.9916 20.9881 56.1696 20.6697C56.3475 20.3513 56.4365 19.986 56.4365 19.5739C56.4365 19.1618 56.3475 18.7966 56.1696 18.4782C55.9916 18.1597 55.7528 17.9162 55.4531 17.7476C55.1534 17.5697 54.8303 17.4807 54.4838 17.4807C54.1466 17.4807 53.8282 17.5697 53.5285 17.7476C53.2288 17.9162 52.99 18.1597 52.812 18.4782C52.6341 18.7966 52.5451 19.1618 52.5451 19.5739C52.5451 19.986 52.6341 20.3513 52.812 20.6697C52.99 20.9881 53.2288 21.2363 53.5285 21.4142C53.8282 21.5922 54.1466 21.6812 54.4838 21.6812Z" fill="#1D1E2F"/>
<path d="M63.8112 23.381C63.0713 23.381 62.4111 23.2171 61.8304 22.8893C61.2497 22.5522 60.7955 22.0979 60.4677 21.5266C60.1493 20.946 59.9901 20.2951 59.9901 19.5739C59.9901 18.8621 60.1493 18.2159 60.4677 17.6353C60.7955 17.0546 61.2497 16.6004 61.8304 16.2726C62.4111 15.9354 63.0713 15.7668 63.8112 15.7668C64.5417 15.7668 65.1973 15.9354 65.778 16.2726C66.3586 16.6004 66.8082 17.0546 67.1266 17.6353C67.4544 18.2159 67.6183 18.8621 67.6183 19.5739C67.6183 20.2951 67.4544 20.946 67.1266 21.5266C66.8082 22.0979 66.3586 22.5522 65.778 22.8893C65.1973 23.2171 64.5417 23.381 63.8112 23.381ZM63.8112 21.6812C64.1671 21.6812 64.4949 21.5969 64.7946 21.4283C65.0943 21.2597 65.3331 21.0162 65.511 20.6978C65.689 20.3794 65.778 20.0047 65.778 19.5739C65.778 19.1525 65.689 18.7825 65.511 18.4641C65.3331 18.1457 65.0943 17.9022 64.7946 17.7336C64.4949 17.565 64.1671 17.4807 63.8112 17.4807C63.4553 17.4807 63.1275 17.565 62.8278 17.7336C62.5281 17.9022 62.2846 18.1457 62.0973 18.4641C61.9194 18.7825 61.8304 19.1525 61.8304 19.5739C61.8304 19.9954 61.9194 20.37 62.0973 20.6978C62.2846 21.0162 62.5281 21.2597 62.8278 21.4283C63.1275 21.5969 63.4553 21.6812 63.8112 21.6812Z" fill="#1D1E2F"/>
<path d="M73.1566 23.381C72.4167 23.381 71.7565 23.2171 71.1758 22.8893C70.5951 22.5522 70.1409 22.0979 69.8131 21.5266C69.4947 20.946 69.3355 20.2951 69.3355 19.5739C69.3355 18.8621 69.4947 18.2159 69.8131 17.6353C70.1409 17.0546 70.5951 16.6004 71.1758 16.2726C71.7565 15.9354 72.4167 15.7668 73.1566 15.7668C73.8871 15.7668 74.5427 15.9354 75.1234 16.2726C75.704 16.6004 76.1536 17.0546 76.472 17.6353C76.7998 18.2159 76.9637 18.8621 76.9637 19.5739C76.9637 20.2951 76.7998 20.946 76.472 21.5266C76.1536 22.0979 75.704 22.5522 75.1234 22.8893C74.5427 23.2171 73.8871 23.381 73.1566 23.381ZM73.1566 21.6812C73.5125 21.6812 73.8403 21.5969 74.14 21.4283C74.4397 21.2597 74.6785 21.0162 74.8564 20.6978C75.0344 20.3794 75.1234 20.0047 75.1234 19.5739C75.1234 19.1525 75.0344 18.7825 74.8564 18.4641C74.6785 18.1457 74.4397 17.9022 74.14 17.7336C73.8403 17.565 73.5125 17.4807 73.1566 17.4807C72.8007 17.4807 72.4729 17.565 72.1732 17.7336C71.8735 17.9022 71.63 18.1457 71.4427 18.4641C71.2648 18.7825 71.1758 19.1525 71.1758 19.5739C71.1758 19.9954 71.2648 20.37 71.4427 20.6978C71.63 21.0162 71.8735 21.2597 72.1732 21.4283C72.4729 21.5969 72.8007 21.6812 73.1566 21.6812Z" fill="#1D1E2F"/>
<path d="M79.0056 13.0977H80.846V23.1562H79.0056V13.0977Z" fill="#1D1E2F"/>
<path d="M26.1171 0.00857057L20.2343 5.89142L26.1168 11.774L31.9997 5.89115L26.1171 0.00857057Z" fill="#F2BA30"/>
<path d="M5.89094 0L0 5.89094L10.1091 16L0 26.1091L5.89094 32L16 21.8909L21.8909 16L16 10.1091L5.89094 0Z" fill="#F2BA30"/>
<path d="M26.1173 20.2264L20.2347 26.1089L26.1176 31.9918L32.0002 26.1092L26.1173 20.2264Z" fill="#F2BA30"/>
</svg>
